<?xml version="1.0" encoding="UTF-8" standalone="no"?>
<!-- Created with Inkscape (http://www.inkscape.org/) -->

<svg
   version="1.1"
   id="svg1"
   width="94.8592"
   height="94.859207"
   viewBox="0 0 94.8592 94.859207"
   sodipodi:docname="helipad.svg"
   inkscape:version="1.3.2 (091e20e, 2023-11-25, custom)"
   xmlns:inkscape="http://www.inkscape.org/namespaces/inkscape"
   xmlns:sodipodi="http://sodipodi.sourceforge.net/DTD/sodipodi-0.dtd"
   xmlns="http://www.w3.org/2000/svg"
   xmlns:svg="http://www.w3.org/2000/svg">
  <defs
     id="defs1" />
  <sodipodi:namedview
     id="namedview1"
     pagecolor="#ffffff"
     bordercolor="#000000"
     borderopacity="0.25"
     inkscape:showpageshadow="2"
     inkscape:pageopacity="0.0"
     inkscape:pagecheckerboard="0"
     inkscape:deskcolor="#d1d1d1"
     showgrid="false"
     inkscape:zoom="6.925"
     inkscape:cx="48.158845"
     inkscape:cy="51.624549"
     inkscape:window-width="1920"
     inkscape:window-height="1009"
     inkscape:window-x="-8"
     inkscape:window-y="-8"
     inkscape:window-maximized="1"
     inkscape:current-layer="g1" />
  <g
     inkscape:groupmode="layer"
     inkscape:label="Image"
     id="g1"
     transform="translate(-11.788811,-6.2093863)">
    <path
       id="circle1"
       style="fill:#ffffff;fill-opacity:1;stroke:#1f4bab;stroke-width:0;stroke-dasharray:none;stroke-opacity:1"
       d="m 59.773438,19.835938 c -3.436779,0.04528 -6.872341,0.549104 -10.143326,1.617857 -3.552657,1.126152 -6.90841,2.867431 -9.88778,5.106649 -2.98399,2.232609 -5.580885,4.977255 -7.669494,8.063754 -2.086144,3.088637 -3.636948,6.531703 -4.604468,10.13086 -0.944956,3.571735 -1.293949,7.296077 -1.039568,10.98244 0.267919,3.685153 1.14784,7.321005 2.585555,10.725258 1.436646,3.366788 3.419861,6.498115 5.861392,9.227099 2.482929,2.780968 5.437501,5.132499 8.689819,6.954446 3.231887,1.790365 6.756856,3.041087 10.392456,3.701006 3.637855,0.644915 7.378411,0.686147 11.031352,0.128074 3.648415,-0.57515 7.200294,-1.746271 10.473513,-3.45988 3.265993,-1.726949 6.242733,-3.991138 8.782597,-6.675003 2.527705,-2.694326 4.612269,-5.80004 6.141403,-9.164669 1.51881,-3.367653 2.474814,-6.983748 2.831136,-10.661252 C 94.079403,47.941552 91.424566,39.095034 86.01413,32.394939 80.05403,24.876876 70.726307,20.17459 61.136839,19.861957 c -0.454004,-0.02104 -0.908997,-0.02541 -1.363401,-0.02602 z" />
    <path
       id="path8"
       style="fill:#1f4bab"
       d="M 53.140374 6.2093863 L 53.140374 19.496496 C 39.387408 22.220995 28.549589 33.142186 25.941155 46.935949 L 11.788811 46.935949 L 11.788811 59.066808 L 25.812249 59.066808 C 28.174959 73.19054 39.141714 84.44004 53.122795 87.217199 L 53.122795 101.06876 L 65.253655 101.06876 L 65.253655 87.45548 C 79.861251 85.150014 91.45041 73.646229 93.89428 59.084386 L 106.64819 59.084386 L 106.64819 46.95548 L 93.773186 46.95548 C 91.089885 32.720547 79.643731 21.538084 65.271233 19.262121 L 65.271233 6.2093863 L 53.140374 6.2093863 z M 59.855217 24.834386 C 75.643707 24.834386 88.378655 37.569333 88.378655 53.357824 C 88.378655 69.146315 75.643707 81.881261 59.855217 81.881261 C 44.066726 81.881261 31.33178 69.146315 31.33178 53.357824 C 31.33178 37.569333 44.066726 24.834386 59.855217 24.834386 z " />
    <path
       id="text162"
       style="font-style:normal;font-variant:normal;font-weight:normal;font-stretch:normal;font-size:47.8346px;font-family:Bahnschrift;-inkscape-font-specification:'Bahnschrift, Normal';font-variant-ligatures:normal;font-variant-caps:normal;font-variant-numeric:normal;font-variant-east-asian:normal;fill:#1f4bab;fill-opacity:1;stroke:none;stroke-width:1.21598;stroke-dasharray:none;stroke-opacity:1"
       d="m 45.712375,35.807386 c -1e-6,12.183271 0,24.366543 0,36.549815 2.874157,0 5.748315,0 8.622473,0 0,-4.897924 0,-9.795849 0,-14.693772 3.453218,0 6.906436,0 10.359653,0 0,4.897923 0,9.795848 0,14.693772 2.874158,0 5.748316,0 8.622474,0 0,-12.860856 0,-25.721711 0,-38.582566 -2.874158,0 -5.748316,0 -8.622474,0 0,5.072613 0,10.145227 0,15.21784 -3.453217,0 -6.906435,0 -10.359653,0 0,-5.072613 0,-10.145227 0,-15.21784 -2.874158,0 -5.748316,0 -8.622473,0 0,0.677583 -1e-6,1.355167 0,2.032751 z" />
  </g>
</svg>
