<?xml version="1.0" encoding="UTF-8" standalone="no"?>
<!-- Uploaded to: SVG Repo, www.svgrepo.com, Generator: SVG Repo Mixer Tools -->

<svg
   width="800px"
   height="800px"
   viewBox="0 0 1024 1024"
   class="icon"
   version="1.1"
   id="svg5"
   sodipodi:docname="record.svg"
   inkscape:version="1.3.2 (091e20e, 2023-11-25, custom)"
   xmlns:inkscape="http://www.inkscape.org/namespaces/inkscape"
   xmlns:sodipodi="http://sodipodi.sourceforge.net/DTD/sodipodi-0.dtd"
   xmlns="http://www.w3.org/2000/svg"
   xmlns:svg="http://www.w3.org/2000/svg">
  <defs
     id="defs5" />
  <sodipodi:namedview
     id="namedview5"
     pagecolor="#565656"
     bordercolor="#000000"
     borderopacity="0.25"
     inkscape:showpageshadow="2"
     inkscape:pageopacity="0.0"
     inkscape:pagecheckerboard="0"
     inkscape:deskcolor="#d1d1d1"
     inkscape:zoom="1.06375"
     inkscape:cx="400"
     inkscape:cy="400"
     inkscape:window-width="1920"
     inkscape:window-height="1009"
     inkscape:window-x="-8"
     inkscape:window-y="-8"
     inkscape:window-maximized="1"
     inkscape:current-layer="svg5" />
  <path
     id="path1"
     style="fill:#ffffff;fill-opacity:1"
     d="M 378.8 64.7 C 374.3 64.7 370.6 68.400004 370.6 72.9 L 370.6 98.2 L 247 98.2 C 202.20008 98.2 165.7 135.7001 165.7 181.8 L 165.7 874.7 C 165.7 920.7999 202.20008 958.3 247 958.3 L 781.6 958.3 C 826.39992 958.3 862.9 920.7999 862.9 874.6 L 862.9 181.8 C 862.9 135.7001 826.39992 98.2 781.6 98.2 L 658 98.2 L 658 72.9 C 658 68.400004 654.3 64.7 649.8 64.7 L 378.8 64.7 z M 400.6 94.7 L 628 94.7 L 628 165.5 L 400.6 165.5 L 400.6 94.7 z M 247 159.9 L 370.6 159.9 L 370.6 187.3 C 370.6 191.8 374.3 195.5 378.8 195.5 L 649.8 195.5 C 654.3 195.5 658 191.8 658 187.4 L 658 159.9 L 781.6 159.9 C 793.29998 159.9 802.9 169.70002 802.9 181.8 L 802.9 874.6 C 802.9 886.69998 793.29998 896.5 781.6 896.5 L 247 896.5 C 235.30002 896.5 225.7 886.69998 225.7 874.6 L 225.7 181.8 C 225.7 169.70002 235.30002 159.9 247 159.9 z " />
  <path
     d="M 584.9,145.1 H 441.1 c -3.1,0 -5.6,-2.5 -5.6,-5.6 v -18.9 c 0,-3.1 2.5,-5.6 5.6,-5.6 H 585 c 3.1,0 5.6,2.5 5.6,5.6 v 18.9 c -0.1,3.1 -2.6,5.6 -5.7,5.6 z"
     fill="#727272"
     id="path4"
     style="display:inline;fill:#ffffff;fill-opacity:1" />
  <path
     d="m 432.4,674.1 -53.6,-156.6 -47.1,96.9 c -5.2,10.6 -20.4,10.5 -25.4,-0.2 l -26.7,-56.9 c -3.3,-7 -0.3,-15.4 6.8,-18.7 l 1.7,-0.8 c 7,-3.3 15.4,-0.3 18.7,6.8 l 12.5,26.6 49.4,-101.6 c 5.5,-11.3 21.9,-10.3 26,1.6 l 47.5,138.7 56.1,-262 c 3.1,-14.5 23.7,-14.9 27.4,-0.5 l 54.9,215.4 45.4,-92.9 c 5.2,-10.6 20.2,-10.5 25.3,0.1 l 48.7,101.5 21.5,-44.4 c 3.4,-7 11.8,-9.9 18.8,-6.5 l 1.7,0.8 c 7,3.4 9.9,11.8 6.5,18.8 l -35.9,74.1 c -5.1,10.6 -20.2,10.6 -25.3,0 l -48.8,-101.7 -50,102.3 c -5.7,11.8 -23,10 -26.3,-2.7 L 513.3,420.7 459.4,672.4 c -3,14 -22.4,15.2 -27,1.7 z"
     fill="#ff0000"
     id="path5"
     style="display:inline;fill:#ffffff;fill-opacity:1" />
</svg>
