<?xml version="1.0" encoding="UTF-8" standalone="no"?>
<!-- Created with Inkscape (http://www.inkscape.org/) -->

<svg
   version="1.1"
   id="svg1"
   width="94.8592"
   height="94.859207"
   viewBox="0 0 94.8592 94.859207"
   sodipodi:docname="waterairport.svg"
   inkscape:version="1.3.2 (091e20e, 2023-11-25, custom)"
   xmlns:inkscape="http://www.inkscape.org/namespaces/inkscape"
   xmlns:sodipodi="http://sodipodi.sourceforge.net/DTD/sodipodi-0.dtd"
   xmlns="http://www.w3.org/2000/svg"
   xmlns:svg="http://www.w3.org/2000/svg">
  <defs
     id="defs1">
    <pattern
       patternUnits="userSpaceOnUse"
       width="45.715061"
       height="45.715061"
       patternTransform="translate(25.301313,28.694817)"
       preserveAspectRatio="xMidYMid"
       id="pattern1"
       inkscape:label="pattern1">
      <circle
         style="fill:#ffffff;fill-opacity:1;stroke:#1f4bab;stroke-width:3.549;stroke-dasharray:none;stroke-opacity:1"
         id="path1"
         cx="22.857531"
         cy="22.857531"
         r="21.083031" />
    </pattern>
  </defs>
  <sodipodi:namedview
     id="namedview1"
     pagecolor="#ffffff"
     bordercolor="#000000"
     borderopacity="0.25"
     inkscape:showpageshadow="2"
     inkscape:pageopacity="0.0"
     inkscape:pagecheckerboard="0"
     inkscape:deskcolor="#d1d1d1"
     showgrid="false"
     inkscape:zoom="6.925"
     inkscape:cx="48.303249"
     inkscape:cy="51.624549"
     inkscape:window-width="1920"
     inkscape:window-height="1009"
     inkscape:window-x="-8"
     inkscape:window-y="-8"
     inkscape:window-maximized="1"
     inkscape:current-layer="g1" />
  <g
     inkscape:groupmode="layer"
     inkscape:label="Image"
     id="g1"
     transform="translate(-11.788811,-6.2093863)">
    <g
       id="path162">
      <path
         style="color:#000000;fill:#ffffff;-inkscape-stroke:none"
         d="M 91.378958,53.357399 A 31.523367,31.523367 0 0 1 59.855591,84.880766 31.523367,31.523367 0 0 1 28.332224,53.357399 31.523367,31.523367 0 0 1 59.855591,21.834032 31.523367,31.523367 0 0 1 91.378958,53.357399 Z"
         id="path2" />
      <path
         id="path3"
         style="color:#000000;fill:#1f4bab;-inkscape-stroke:none"
         d="M 53.140374 6.2093863 L 53.140374 19.496496 C 39.387056 22.221055 28.54375 33.142826 25.935295 46.935949 L 11.788811 46.935949 L 11.788811 59.066808 L 25.812249 59.066808 C 28.174957 73.190549 39.141705 84.440043 53.122795 87.217199 L 53.122795 101.06876 L 65.253655 101.06876 L 65.253655 87.45548 C 79.861261 85.150016 91.450412 73.646238 93.89428 59.084386 L 106.64819 59.084386 L 106.64819 46.95548 L 93.779045 46.95548 C 91.096274 32.720247 79.644356 21.538174 65.271233 19.262121 L 65.271233 6.2093863 L 53.140374 6.2093863 z M 59.855217 24.834386 C 75.643723 24.834386 88.378655 37.569317 88.378655 53.357824 C 88.378655 69.146331 75.643723 81.881261 59.855217 81.881261 C 44.06671 81.881261 31.33178 69.146331 31.33178 53.357824 C 31.33178 37.569317 44.06671 24.834386 59.855217 24.834386 z " />
    </g>
    <path
       id="path6"
       style="color:#000000;fill:#1f4bab;stroke-width:5.67301;stroke-dasharray:none"
       d="m 56.127912,31.019426 v 2 5.857421 H 47.64563 v 6.914063 h 8.482282 v 23.326172 c -5.696999,-0.975285 -10.888803,-4.952856 -13.800733,-10.50586 1.448032,-0.589252 2.896105,-1.17839 4.344158,-1.767578 -3.375744,-1.761566 -6.751431,-3.523303 -10.127056,-5.285156 l -0.756037,1.8125 c -1.321928,3.171782 -2.643752,6.343629 -3.965267,9.515625 1.560951,-0.63545 3.121905,-1.270906 4.68289,-1.90625 0.7882,1.660185 1.687922,3.250264 2.774465,4.695313 4.743478,6.562198 12.173001,10.558641 19.719824,10.580078 7.505333,0.12104 14.953935,-3.689812 19.798395,-10.09961 1.23357,-1.577753 2.255121,-3.331308 3.134149,-5.173828 1.560284,0.635059 3.120895,1.269133 4.681144,1.904297 -1.57351,-3.776171 -3.146463,-7.552647 -4.721304,-11.328125 l -1.620329,0.845703 c -2.835538,1.479898 -5.671107,2.959749 -8.506727,4.439453 1.444081,0.587572 2.887876,1.176036 4.331937,1.763672 -0.592776,1.143516 -1.261834,2.234657 -2.058587,3.22461 -2.972827,3.899513 -7.225494,6.468127 -11.729925,7.287109 V 45.79091 h 8.482283 v -6.914063 h -8.482283 v -7.857421 z" />
  </g>
</svg>
